<svg width="187" height="29" viewBox="0 0 187 29" fill="none" xmlns="http://www.w3.org/2000/svg">
<path d="M11.8888 23.8872C11.8888 22.9055 11.4716 22.0602 10.6373 21.3512C9.80301 20.6422 8.16223 19.906 5.71495 19.1425C1.90498 17.9154 0 15.8702 0 13.0071C0 11.2073 0.653534 9.83028 1.9606 8.87588C3.29548 7.92149 5.13094 7.44429 7.46698 7.44429C8.635 7.44429 10.1924 7.6079 12.1391 7.93512L13.0568 8.05783V14.2341H13.0151C12.3754 10.7438 10.4009 8.99859 7.09154 8.99859C5.84009 8.99859 4.79722 9.28491 3.96292 9.85755C3.12862 10.4029 2.71147 11.0983 2.71147 11.9436C2.71147 12.8162 3.04519 13.5524 3.71263 14.1523C4.38007 14.725 5.64542 15.2976 7.50869 15.8702C10.4287 16.7428 12.4032 17.7245 13.4322 18.8152C14.489 19.906 15.0174 21.2421 15.0174 22.8237C15.0174 24.4598 14.336 25.905 12.9734 27.1594C11.6385 28.3865 9.44148 29 6.38239 29C4.15759 29 2.14137 28.3456 0.333719 27.0367V24.787C2.00232 26.5595 4.11588 27.4457 6.67439 27.4457C8.23175 27.4457 9.4832 27.1321 10.4287 26.5049C11.4021 25.8778 11.8888 25.0052 11.8888 23.8872Z" fill="white"/>
<path d="M22.0037 28.6319H18.3327V5.52186C18.3327 3.85849 18.1103 2.64504 17.6653 1.88152C17.2482 1.09074 16.5251 0.477198 15.4961 0.0409019V0H22.0037V18.8561L31.2644 7.77151H34.3513L26.6757 16.1975L35.6445 28.6319H31.0975L24.3814 18.6107L22.0037 21.3921V28.6319Z" fill="white"/>
<path d="M43.4797 28.6319H39.8088V13.2934C39.8088 11.5209 39.5863 10.2802 39.1413 9.57123C38.752 8.86225 38.015 8.27598 36.9304 7.81241V7.77151H43.4797V28.6319ZM38.9328 3.35402C38.9328 2.67231 39.1552 2.11331 39.6002 1.67701C40.073 1.21345 40.6431 0.981663 41.3105 0.981663C41.978 0.981663 42.5481 1.21345 43.0208 1.67701C43.5214 2.14057 43.7717 2.69958 43.7717 3.35402C43.7717 4.00846 43.5214 4.56747 43.0208 5.03103C42.5481 5.46732 41.978 5.68547 41.3105 5.68547C40.6431 5.68547 40.073 5.46732 39.6002 5.03103C39.1552 4.56747 38.9328 4.00846 38.9328 3.35402Z" fill="white"/>
<path d="M53.3339 12.9252V28.6319H49.663V13.2934C49.663 11.63 49.4405 10.4165 48.9955 9.65303C48.5784 8.86225 47.8553 8.24871 46.8263 7.81241V7.77151H53.3339V10.103C54.335 9.36671 55.4891 8.72591 56.7962 8.18054C58.1033 7.63517 59.2435 7.38975 60.2168 7.44429C62.6363 7.44429 64.3744 8.01693 65.4312 9.1622C66.5158 10.2802 67.0581 12.2026 67.0581 14.9295V28.6319H63.3872V14.8068C63.3872 12.6526 63.0813 11.1801 62.4694 10.3893C61.8576 9.5985 60.8287 9.2031 59.3825 9.2031C57.0465 9.2031 55.0303 10.4438 53.3339 12.9252Z" fill="white"/>
<path d="M84.827 12.9252V28.6319H81.1561V5.52186C81.1561 3.85849 80.9336 2.64504 80.4887 1.88152C80.0715 1.09074 79.3485 0.477198 78.3195 0.0409019V0H84.827V10.103C85.8282 9.36671 86.9823 8.72591 88.2894 8.18054C89.5965 7.63517 90.7367 7.38975 91.71 7.44429C94.1295 7.44429 95.8676 8.01693 96.9244 9.1622C98.009 10.2802 98.5513 12.2026 98.5513 14.9295V28.6319H94.8803V14.8068C94.8803 12.6526 94.5744 11.1801 93.9626 10.3893C93.3508 9.5985 92.3218 9.2031 90.8757 9.2031C88.5397 9.2031 86.5235 10.4438 84.827 12.9252Z" fill="white"/>
<path d="M113.94 27.4457C115.664 27.4457 117.138 27.1594 118.361 26.5867V28.2228C116.526 28.7409 114.649 29 112.73 29C109.643 29 107.14 27.9774 105.221 25.9323C103.33 23.8599 102.384 21.2558 102.384 18.1199C102.384 14.6295 103.233 11.9845 104.929 10.1848C106.653 8.35778 108.975 7.44429 111.895 7.44429C114.537 7.44429 116.581 8.31688 118.028 10.0621C119.502 11.78 120.238 14.3159 120.238 17.67H106.097C106.125 20.8876 106.848 23.3282 108.266 24.9915C109.685 26.6276 111.576 27.4457 113.94 27.4457ZM111.437 8.99859C109.879 8.99859 108.628 9.61213 107.682 10.8392C106.765 12.039 106.25 13.7978 106.139 16.1157H116.276C116.276 11.3709 114.663 8.99859 111.437 8.99859Z" fill="white"/>
<path d="M130.871 27.323C131.844 27.323 132.706 27.1594 133.457 26.8322C134.208 26.5049 135.028 25.9187 135.918 25.0733V17.0155C132.97 17.4791 130.773 18.2562 129.327 19.347C127.881 20.4377 127.158 21.7193 127.158 23.1918C127.158 24.3916 127.492 25.3869 128.159 26.1777C128.854 26.9412 129.758 27.323 130.871 27.323ZM131.621 8.87588C130.175 8.87588 128.882 9.38035 127.742 10.3893C126.602 11.3709 125.893 12.6526 125.614 14.2341H125.573V8.46685C128.382 7.78514 130.509 7.44429 131.955 7.44429C134.597 7.44429 136.53 8.09873 137.754 9.40761C138.977 10.7165 139.589 12.8162 139.589 15.7066V28.6319H135.918V26.8322C133.638 28.2774 131.482 29 129.452 29C127.589 29 126.129 28.4955 125.072 27.4866C124.015 26.4504 123.487 25.087 123.487 23.3963C123.598 22.1692 123.89 21.1603 124.363 20.3695C124.836 19.5787 125.601 18.9107 126.657 18.3653C127.631 17.8472 128.256 17.5336 128.535 17.4245C129.146 17.1791 129.911 16.9473 130.829 16.7292L132.998 16.2384L135.251 15.8293L135.918 15.7066V14.6432C135.918 12.6526 135.584 11.1937 134.917 10.2666C134.277 9.33945 133.179 8.87588 131.621 8.87588Z" fill="white"/>
<path d="M149.319 28.6319H145.648V5.52186C145.648 3.85849 145.426 2.64504 144.981 1.88152C144.563 1.09074 143.84 0.477198 142.811 0.0409019V0H149.319V28.6319Z" fill="white"/>
<path d="M159.674 1.63611V7.77151H165.389V9.32581H159.674V21.5148C159.674 25.3051 161.12 27.2003 164.012 27.2003H165.472V28.6319H163.47C160.995 28.6319 159.131 27.9502 157.88 26.5867C156.629 25.2233 156.003 23.26 156.003 20.6968V9.32581H152.499V7.77151H156.003V2.82228L159.674 1.63611Z" fill="white"/>
<path d="M173.276 12.9252V28.6319H169.605V5.52186C169.605 3.85849 169.382 2.64504 168.937 1.88152C168.52 1.09074 167.797 0.477198 166.768 0.0409019V0H173.276V10.103C174.277 9.36671 175.431 8.72591 176.738 8.18054C178.045 7.63517 179.185 7.38975 180.159 7.44429C182.578 7.44429 184.316 8.01693 185.373 9.1622C186.458 10.2802 187 12.2026 187 14.9295V28.6319H183.329V14.8068C183.329 12.6526 183.023 11.1801 182.411 10.3893C181.8 9.5985 180.771 9.2031 179.324 9.2031C176.988 9.2031 174.972 10.4438 173.276 12.9252Z" fill="white"/>
</svg>
