<svg width="20" height="20" viewBox="0 0 20 20" fill="none" xmlns="http://www.w3.org/2000/svg">
<path d="M19.4689 6.1351L19.4704 6.15202L19.4731 6.1688C19.4866 6.25326 19.581 6.9339 19.3098 8.08155L19.3098 8.0817C18.9196 9.7354 18.0175 11.2449 16.6931 12.4457C16.6926 12.4462 16.6921 12.4466 16.6916 12.4471L9.94295 18.4676L3.3084 12.4469L3.30811 12.4466C1.98302 11.246 1.08034 9.73566 0.690015 8.08168L0.689994 8.08159C0.418763 6.93321 0.513362 6.25292 0.526891 6.16972L0.529729 6.15226L0.531327 6.13465C0.804337 3.12578 2.90846 1.04492 5.44561 1.04492C7.12289 1.04492 8.62891 1.94064 9.51302 3.45351L9.93999 4.18411L10.374 3.45764C11.2642 1.96732 12.8407 1.04531 14.5542 1.04531C17.0917 1.04531 19.1955 3.12615 19.4689 6.1351Z" stroke="white"/>
</svg>
